Coordinates
version=1
nRows=19
nColumns=34
inDegrees=yes

Units are S.I. units (second, meters, Newtons, ...)
If the header above contains a line with 'inDegrees', this indicates whether rotational values are in degrees (yes) or radians (no).

endheader
time	pelvis_tilt	pelvis_list	pelvis_rotation	pelvis_tx	pelvis_ty	pelvis_tz	hip_flexion_r	hip_adduction_r	hip_rotation_r	knee_angle_r	ankle_angle_r	subtalar_angle_r	mtp_angle_r	hip_flexion_l	hip_adduction_l	hip_rotation_l	knee_angle_l	ankle_angle_l	subtalar_angle_l	mtp_angle_l	lumbar_extension	lumbar_bending	lumbar_rotation	arm_flex_r	arm_add_r	arm_rot_r	elbow_flex_r	pro_sup_r	arm_flex_l	arm_add_l	arm_rot_l	elbow_flex_l	pro_sup_l
      3.53333330	     -9.56160915	      3.21467739	      2.20858740	      1.96107898	      0.96449261	     -0.17941481	      8.68984755	    -12.46065767	    -22.20851458	     13.69952064	      1.90959233	      5.35854508	      0.00000000	      7.26706335	     -3.33674903	      1.83158306	      7.52874067	     -4.12551928	      0.01672335	      0.00000000	     -1.24253159	     -3.41995681	     10.46440403	     99.43630291	     -3.57526825	     12.09281174	     74.43956822	     89.57961084	    107.08838529	     10.99894362	     28.99338721	     82.24956132	     89.37442988
      3.55000000	     -9.88439291	      3.08764338	      2.67390725	      1.96433771	      0.96942541	     -0.17767031	      7.38792854	    -11.42956022	    -22.33480614	     10.33560634	     -1.62413154	      4.53840943	      0.00000000	      6.73693605	     -3.57246848	      1.85257946	      5.37499775	     -7.44023287	      0.71094708	      0.00000000	     -0.41655646	     -3.88024073	     10.51925974	    105.03373274	     -8.49649132	     13.49852626	     67.04430534	     88.24662959	    109.77048428	     12.71712379	     26.14822065	     79.84772515	     89.39336363
      3.56666670	    -10.13369351	      2.91066805	      3.11151847	      1.96761988	      0.97258633	     -0.17593560	      6.23090535	    -10.46817586	    -22.20764440	      7.48726528	     -5.00078718	      3.48951515	      0.00000000	      6.40335376	     -3.75850070	      1.56580869	      3.75313986	    -10.60528316	      1.04612253	      0.00000000	      0.09671259	     -4.57170692	     10.97517876	    112.90778549	    -12.81464228	     14.80341722	     56.68770969	     87.33237170	    112.69194813	     15.29549542	     23.25192660	     76.88326306	     89.49615728
      3.58333330	    -10.45735570	      2.81314614	      3.41136146	      1.97131310	      0.97456499	     -0.17484859	      5.42676725	     -9.77750196	    -21.62249088	      5.20892622	     -8.02338945	      2.37162841	      0.00000000	      6.32959299	     -3.72920204	      1.26634327	      2.63174387	    -12.98444981	      0.86883149	      0.00000000	      0.56187777	     -5.53627449	     11.64937895	    120.42152230	    -15.12163852	     13.68743190	     46.48022217	     86.76960691	    115.64176427	     18.01019432	     21.32717618	     74.06564635	     89.47291088
      3.60000000	    -10.65239597	      2.70611394	      3.81242518	      1.97505046	      0.97687823	     -0.17505193	      4.58404379	     -9.28004634	    -21.13365074	      3.31480068	    -11.22556739	      0.88241947	      0.00000000	      6.29228327	     -3.62690782	      0.55083446	      1.81307675	    -15.54264648	      0.45544079	      0.00000000	      0.49050905	     -6.08941979	     11.51103178	    128.77124236	    -14.90398651	     14.25024182	     35.39140548	     86.21069424	    118.57628738	     19.48585202	     19.24773580	     72.35807312	     89.48665695
      3.61666670	    -10.92384699	      2.69994709	      4.24535934	      1.97940801	      0.97929315	     -0.17668447	      4.06425211	     -9.21619601	    -20.31206635	      2.08802252	    -13.98717424	     -0.05750696	      0.00000000	      6.52703843	     -3.30009406	      0.21107262	      1.53051811	    -17.22179387	     -0.01464417	      0.00000000	      0.38189370	     -6.60140658	     11.42568511	    136.63077879	    -13.65648614	     15.68068034	     25.96200184	     85.27947107	    120.30073500	     20.45730052	     17.96695973	     72.39974961	     89.49039516
      3.63333330	    -11.27580533	      2.71847406	      4.67291033	      1.98510909	      0.98208654	     -0.17885592	      3.66675162	     -9.37536181	    -19.20954136	      1.14593572	    -16.05875309	     -0.55061592	      0.00000000	      6.77262838	     -2.90231896	     -0.35073568	      1.33074330	    -18.61702445	     -0.49685629	      0.00000000	      0.53857826	     -7.01360785	     11.00333800	    142.58623345	    -11.62132946	     18.26798017	     19.56214600	     83.75514198	    120.99323813	     20.53147529	     17.01728672	     73.40254437	     89.44250103
      3.65000000	    -11.31305687	      2.81668481	      5.02738599	      1.99147837	      0.98362325	     -0.18112110	      3.17126799	     -9.83014585	    -17.34741757	      0.87591473	    -17.96566185	     -1.19600433	      0.00000000	      6.75052056	     -2.38867082	     -0.81084801	      1.57585155	    -19.42797834	     -1.41171563	      0.00000000	      0.41391863	     -7.40047474	     10.28140357	    146.48979234	     -9.11759641	     20.16105531	     17.32193549	     82.75113697	    120.52176098	     20.11800201	     16.69140084	     75.82871184	     89.48546494
      3.66666670	    -11.38596258	      2.85547245	      5.57048964	      1.99754910	      0.98579545	     -0.18352964	      2.70864339	    -10.35198144	    -16.20883927	      0.87836537	    -18.97899595	     -0.98296729	      0.00000000	      6.59581530	     -1.84775810	     -1.45574888	      1.65394823	    -19.86128470	     -1.84786638	      0.00000000	      0.47176364	     -7.52183794	      9.38121151	    148.81729418	     -6.43036247	     22.28249316	     18.34543436	     82.38036001	    118.82579826	     19.33835483	     16.47893177	     79.31487609	     89.59651693
      3.68333330	    -11.26361803	      2.83913156	      5.78285057	      2.00317364	      0.98691300	     -0.18451473	      2.20663680	    -10.77114882	    -14.97095614	      1.09427822	    -19.77217759	     -0.69318001	      0.00000000	      5.91631191	     -1.36118243	     -2.41458459	      1.42516579	    -19.89914167	     -2.51171893	      0.00000000	      0.50654440	     -7.46155281	      8.58180813	    150.05275286	     -3.63661069	     24.68115907	     20.46619871	     82.38900889	    116.29209658	     18.37821968	     16.38321604	     83.42615165	     89.76362963
      3.70000000	    -11.48280249	      2.74092780	      6.12918794	      2.00822586	      0.98524627	     -0.18395859	      2.19535710	    -11.08220624	    -14.08317436	      1.57622540	    -19.99742150	     -0.53119494	      0.00000000	      5.79253572	     -0.96564246	     -3.19730415	      1.56598571	    -19.29136169	     -3.14837267	      0.00000000	      1.04158801	     -7.32955083	      8.02564812	    151.35844423	     -1.89007234	     33.25073835	     22.69140165	     82.39408028	    112.92241865	     17.22439828	     16.89486108	     87.81310355	     90.57718966
      3.71666670	    -11.20197486	      2.58574370	      6.17066480	      2.01370313	      0.98207409	     -0.18128665	      1.85935352	    -11.13142988	    -13.23133702	      2.37220200	    -20.03009145	     -0.49758006	      0.00000000	      4.78614628	     -0.84651556	     -4.15526324	      1.20815230	    -18.80567791	     -3.74689299	      0.00000000	      0.79017772	     -7.25938145	      7.65377629	    152.45893518	     -0.52095282	     38.49974877	     25.98964026	     81.95851575	    110.16462261	     16.54888753	     17.54698251	     91.58770123	     91.28591766
      3.73333330	    -10.81884460	      2.42734935	      6.06007348	      2.01977217	      0.97791055	     -0.17779120	      1.36447356	    -10.95337733	    -12.22993643	      3.05868584	    -19.48173000	     -0.45523587	      0.00000000	      3.57186068	     -0.92604122	     -4.84110976	      0.79624246	    -18.03409220	     -4.38339147	      0.00000000	      0.28910881	     -7.24738570	      7.18029848	    153.29177350	      1.01793073	     40.30827613	     28.60938133	     82.12707460	    108.29423287	     16.02145557	     18.61336495	     94.36613359	     91.52228655
      3.75000000	    -10.78038151	      2.16117051	      6.10698484	      2.02544066	      0.97445400	     -0.17558570	      1.23833875	    -10.56793942	    -11.77566000	      3.83206571	    -18.55515808	     -0.58969447	      0.00000000	      3.00262270	     -1.22358724	     -5.31076954	      0.86241806	    -16.69520065	     -4.89504299	      0.00000000	      0.28957866	     -7.33675187	      6.51868490	    154.07400222	      0.99252481	     45.68064731	     31.55620792	     82.86124247	    106.33793446	     15.80795463	     20.28490147	     96.15862020	     92.09726565
      3.76666670	    -10.51456661	      1.95935171	      5.80595988	      2.03106492	      0.97153114	     -0.17466561	      0.77666591	    -10.13138201	    -11.17271738	      4.32351243	    -17.24441672	     -0.55851990	      0.00000000	      1.98730847	     -1.52655446	     -6.05882136	      0.63464720	    -15.77437362	     -5.52284504	      0.00000000	     -0.00629271	     -7.24420040	      6.01846222	    154.32205902	      1.25034248	     48.70100960	     33.87247825	     83.22922002	    104.23592496	     15.53633519	     21.85407791	     98.22403619	     92.48765063
      3.78333330	    -10.23137239	      1.80919023	      5.33320615	      2.03633996	      0.96905513	     -0.17401590	      0.24019799	     -9.74657817	    -10.48042701	      4.62859172	    -15.84854555	     -0.44474459	      0.00000000	      0.85194043	     -1.73759053	     -6.85751485	      0.19328749	    -14.95838316	     -6.15778214	      0.00000000	     -0.17167619	     -7.05611222	      5.49898378	    153.82243661	      1.28384009	     50.71790756	     36.16566315	     83.54181146	    101.91224604	     14.96316882	     23.47718222	     99.97159267	     92.70850458
      3.80000000	    -10.04162188	      1.68546306	      4.89686430	      2.04124693	      0.96603799	     -0.17271446	     -0.38435930	     -9.37940579	     -9.90946977	      4.62381455	    -14.21333616	     -0.55491622	      0.00000000	     -0.04754389	     -1.90510239	     -7.29713336	      0.00000000	    -13.72120154	     -6.86657521	      0.00000000	     -0.26599579	     -6.91313719	      4.96487985	    153.28842904	      0.91031586	     52.17049149	     38.09337071	     83.79048440	     99.51556014	     14.54414043	     25.13959546	    101.50010801	     92.86001848
      3.81666670	     -9.80438160	      1.55368418	      4.34423643	      2.04571450	      0.96215069	     -0.17024869	     -0.94586332	     -8.98279045	     -9.35900109	      4.67939550	    -12.53630204	     -0.62477557	      0.00000000	     -0.83279426	     -2.15247929	     -7.82985834	      0.00000000	    -12.79346129	     -7.42142156	      0.00000000	     -0.41053948	     -6.74803755	      4.34370282	    152.23764547	      0.21437455	     54.04559170	     40.82396173	     84.12011757	     96.90870069	     13.78661631	     27.14318242	    103.34341593	     93.02357241
      3.83333330	     -9.80005260	      1.47979853	      3.75370886	      2.05074643	      0.95853158	     -0.16766675	     -1.28376654	     -8.66269929	     -8.96063930	      4.69206507	    -11.19959232	     -0.63222467	      0.00000000	     -1.35045328	     -2.34396846	     -8.25006816	      0.00000000	    -12.12708710	     -7.77163738	      0.00000000	     -0.33606785	     -6.72271542	      3.54274577	    151.22333727	     -0.85476255	     56.07144276	     44.45186102	     84.49069728	     94.93749536	     12.78738384	     29.39155405	    104.75032137	     93.19922140
